<?xml version="1.0" encoding="utf-8"?>
<!-- Generator: Adobe Illustrator 24.0.0, SVG Export Plug-In . SVG Version: 6.00 Build 0)  -->
<svg version="1.1" id="Capa_1" xmlns="http://www.w3.org/2000/svg" xmlns:xlink="http://www.w3.org/1999/xlink" x="0px" y="0px"
	 viewBox="0 0 520.41 114.28" style="enable-background:new 0 0 520.41 114.28;" xml:space="preserve">
<style type="text/css">
	.st0{fill:#A8A9AC;}
	.st1{fill-rule:evenodd;clip-rule:evenodd;fill:url(#SVGID_1_);}
	.st2{fill-rule:evenodd;clip-rule:evenodd;fill:url(#SVGID_2_);}
	.st3{fill-rule:evenodd;clip-rule:evenodd;fill:url(#SVGID_3_);}
</style>
<g>
	<path class="st0" d="M167.17,73.22h2.7v18.24c0,2.8-0.22,4.75-0.65,5.85c-0.43,1.1-1.16,1.97-2.18,2.63
		c-1.02,0.66-2.25,0.98-3.69,0.98c-1.09,0-2.17-0.21-3.23-0.63c-1.06-0.42-2.23-1.17-3.52-2.24l1.43-2.15
		c1.41,0.99,2.58,1.69,3.52,2.1c0.62,0.27,1.22,0.41,1.81,0.41c0.77,0,1.47-0.24,2.11-0.7c0.63-0.46,1.07-1.08,1.33-1.85
		c0.25-0.77,0.38-2.27,0.38-4.49V73.22z"/>
	<path class="st0" d="M187.82,72.54c4.09,0,7.52,1.36,10.28,4.09c2.76,2.73,4.14,6.1,4.14,10.09c0,3.95-1.38,7.31-4.13,10.07
		s-6.11,4.13-10.06,4.13c-4.01,0-7.39-1.37-10.15-4.12c-2.76-2.74-4.14-6.06-4.14-9.96c0-2.6,0.63-5,1.88-7.22
		c1.25-2.22,2.97-3.95,5.14-5.21C182.94,73.17,185.29,72.54,187.82,72.54z M187.94,75.17c-2,0-3.9,0.52-5.69,1.56
		c-1.79,1.05-3.19,2.45-4.2,4.22c-1,1.76-1.51,3.73-1.51,5.9c0,3.22,1.11,5.93,3.34,8.14c2.23,2.21,4.91,3.32,8.05,3.32
		c2.1,0,4.04-0.51,5.82-1.53c1.79-1.02,3.18-2.41,4.18-4.17c1-1.76,1.5-3.73,1.5-5.89c0-2.14-0.5-4.08-1.5-5.82
		c-1-1.74-2.41-3.12-4.22-4.17C191.9,75.69,189.97,75.17,187.94,75.17z"/>
	<path class="st0" d="M204.01,73.22h3.11l6.92,11.15l6.8-11.15h3.12l-8.56,14.11v12.92h-2.66V87.33L204.01,73.22z"/>
	<path class="st0" d="M237.95,73.22l12.6,27.03h-2.92l-4.25-8.89h-11.64l-4.21,8.89h-3.01l12.77-27.03H237.95z M237.61,78.97
		l-4.63,9.78h9.24L237.61,78.97z"/>
	<path class="st0" d="M250.45,95.22l2.3-1.38c1.61,2.97,3.48,4.46,5.6,4.46c0.91,0,1.76-0.21,2.55-0.64c0.8-0.42,1.4-0.99,1.82-1.7
		c0.42-0.71,0.63-1.46,0.63-2.26c0-0.91-0.31-1.79-0.92-2.66c-0.85-1.2-2.39-2.64-4.63-4.33c-2.25-1.71-3.66-2.94-4.2-3.69
		c-0.96-1.28-1.43-2.65-1.43-4.14c0-1.17,0.28-2.25,0.84-3.21c0.57-0.97,1.36-1.73,2.38-2.29c1.02-0.56,2.14-0.84,3.34-0.84
		c1.27,0,2.46,0.31,3.57,0.95c1.11,0.63,2.28,1.79,3.52,3.48l-2.21,1.67c-1.02-1.35-1.88-2.24-2.6-2.66
		c-0.72-0.42-1.5-0.64-2.35-0.64c-1.09,0-1.98,0.33-2.67,0.99s-1.04,1.47-1.04,2.44c0,0.59,0.12,1.16,0.37,1.71
		c0.25,0.55,0.69,1.15,1.34,1.8c0.35,0.34,1.52,1.24,3.49,2.7c2.34,1.73,3.95,3.26,4.82,4.61c0.87,1.35,1.3,2.71,1.3,4.06
		c0,1.96-0.74,3.66-2.23,5.11c-1.49,1.45-3.3,2.17-5.43,2.17c-1.64,0-3.14-0.44-4.47-1.31C252.8,98.74,251.57,97.27,250.45,95.22z"
		/>
	<linearGradient id="SVGID_1_" gradientUnits="userSpaceOnUse" x1="80.6775" y1="-14.8739" x2="16.9404" y2="128.2819">
		<stop  offset="0" style="stop-color:#C6C5C5"/>
		<stop  offset="0.12" style="stop-color:#9C9C9A"/>
		<stop  offset="0.52" style="stop-color:#3C3C3B"/>
		<stop  offset="1" style="stop-color:#3C3C3B"/>
	</linearGradient>
	<path class="st1" d="M100.54,24.33c-16.06,0-32.12,0-48.18,0c-30.96,9.25-36.33,52.07,0,64.64h21.67v21.32h-20.9
		C-13.2,103.61-8.84,7.99,53.13,4h47.92L100.54,24.33z"/>
	<linearGradient id="SVGID_2_" gradientUnits="userSpaceOnUse" x1="162.6607" y1="-51.9223" x2="62.4385" y2="173.1804">
		<stop  offset="0" style="stop-color:#C6C5C5"/>
		<stop  offset="0.12" style="stop-color:#9C9C9A"/>
		<stop  offset="0.52" style="stop-color:#3C3C3B"/>
		<stop  offset="1" style="stop-color:#3C3C3B"/>
	</linearGradient>
	<path class="st2" d="M107.52,4v67.81c-0.03,9.59-4.31,15.1-12.49,16.86H77.69v21.6h23.71c18.27-1.94,29.74-11.74,30.33-34.12V4
		H107.52z"/>
	<linearGradient id="SVGID_3_" gradientUnits="userSpaceOnUse" x1="337.038" y1="1967.9447" x2="337.038" y2="-1883.9603">
		<stop  offset="0" style="stop-color:#868686"/>
		<stop  offset="0.47" style="stop-color:#585856"/>
		<stop  offset="1" style="stop-color:#868686"/>
	</linearGradient>
	<path class="st3" d="M158.67,62.65V22.06h8.61c6.2,0,10.71,0.49,13.51,1.46c4.03,1.39,7.18,3.77,9.44,7.18
		c2.26,3.4,3.4,7.45,3.4,12.17c0,4.07-0.9,7.64-2.7,10.73c-1.79,3.09-4.13,5.38-6.99,6.85c-2.87,1.47-6.9,2.21-12.07,2.21H158.67
		L158.67,62.65z M162.65,58.81h4.79c5.72,0,9.68-0.35,11.9-1.05c3.11-1,5.57-2.78,7.35-5.36c1.78-2.59,2.67-5.75,2.67-9.48
		c0-3.91-0.96-7.27-2.9-10.04c-1.93-2.78-4.62-4.68-8.07-5.71c-2.59-0.77-6.86-1.16-12.8-1.16h-2.93V58.81L162.65,58.81z
		 M198.72,22.06h23.75v3.96h-19.59v12.72h19.42v3.96h-19.42v16h19.42v3.96h-23.58V22.06L198.72,22.06z M265.3,29.55l-3.27,2.46
		c-1.8-2.3-3.97-4.04-6.5-5.23c-2.52-1.19-5.3-1.78-8.33-1.78c-3.3,0-6.37,0.78-9.19,2.34c-2.82,1.55-5,3.65-6.55,6.27
		c-1.55,2.62-2.33,5.58-2.33,8.85c0,4.96,1.73,9.09,5.2,12.4c3.47,3.32,7.84,4.98,13.13,4.98c5.81,0,10.66-2.22,14.57-6.67
		l3.27,2.43c-2.07,2.57-4.65,4.57-7.74,5.97c-3.09,1.4-6.55,2.11-10.36,2.11c-7.26,0-12.99-2.36-17.18-7.1
		c-3.52-3.99-5.28-8.81-5.28-14.46c0-5.94,2.13-10.94,6.39-14.99c4.27-4.06,9.6-6.09,16.02-6.09c3.87,0,7.37,0.74,10.49,2.23
		C260.75,24.77,263.31,26.86,265.3,29.55L265.3,29.55z M290.4,21.04c6.28,0,11.54,2.05,15.77,6.15c4.23,4.1,6.35,9.15,6.35,15.14
		c0,5.95-2.11,10.99-6.33,15.12c-4.23,4.14-9.37,6.21-15.45,6.21c-6.15,0-11.34-2.06-15.57-6.18c-4.23-4.12-6.35-9.1-6.35-14.95
		c0-3.9,0.96-7.51,2.89-10.85c1.93-3.33,4.56-5.94,7.89-7.82C282.92,21.98,286.53,21.04,290.4,21.04L290.4,21.04z M290.58,25
		c-3.06,0-5.97,0.78-8.73,2.35c-2.74,1.56-4.89,3.67-6.44,6.31c-1.54,2.66-2.31,5.61-2.31,8.87c0,4.82,1.71,8.89,5.12,12.2
		c3.42,3.33,7.54,4.98,12.36,4.98c3.23,0,6.2-0.76,8.94-2.29c2.75-1.53,4.88-3.62,6.42-6.27c1.53-2.65,2.3-5.59,2.3-8.83
		c0-3.22-0.77-6.13-2.3-8.74c-1.53-2.6-3.7-4.68-6.48-6.25C296.67,25.78,293.71,25,290.58,25L290.58,25z M317.83,22.06H322v36.64
		H338v3.96h-20.17V22.06L317.83,22.06z M361.3,21.04c6.28,0,11.54,2.05,15.77,6.15c4.23,4.1,6.35,9.15,6.35,15.14
		c0,5.95-2.11,10.99-6.33,15.12c-4.23,4.14-9.37,6.21-15.45,6.21c-6.15,0-11.34-2.06-15.57-6.18c-4.23-4.12-6.35-9.1-6.35-14.95
		c0-3.9,0.96-7.51,2.89-10.85c1.93-3.33,4.56-5.94,7.89-7.82C353.82,21.98,357.43,21.04,361.3,21.04L361.3,21.04z M361.48,25
		c-3.06,0-5.97,0.78-8.73,2.35c-2.75,1.56-4.89,3.67-6.44,6.31c-1.54,2.66-2.31,5.61-2.31,8.87c0,4.82,1.71,8.89,5.12,12.2
		c3.42,3.33,7.54,4.98,12.36,4.98c3.23,0,6.2-0.76,8.94-2.29c2.75-1.53,4.88-3.62,6.42-6.27c1.53-2.65,2.3-5.59,2.3-8.83
		c0-3.22-0.77-6.13-2.3-8.74c-1.53-2.6-3.7-4.68-6.48-6.25C367.57,25.78,364.61,25,361.48,25L361.48,25z M386.94,62.65l5.75-40.59
		h0.86l16.89,33.3l16.78-33.3h0.63l5.97,40.59h-4.02l-4.16-29.06l-14.7,29.06h-1.09l-14.84-29.29l-3.98,29.29H386.94L386.94,62.65z
		 M438.95,22.06h8.18c3.29,0,5.83,0.38,7.59,1.14c1.77,0.76,3.17,1.94,4.19,3.52c1.03,1.57,1.54,3.34,1.54,5.26
		c0,1.81-0.45,3.45-1.35,4.93c-0.9,1.48-2.22,2.68-3.95,3.6c2.16,0.72,3.81,1.55,4.97,2.53c1.17,0.96,2.06,2.13,2.71,3.51
		c0.65,1.37,0.97,2.86,0.97,4.46c0,3.26-1.21,6.02-3.65,8.27c-2.44,2.25-5.7,3.38-9.81,3.38h-11.39V22.06L438.95,22.06z M443,26.01
		v13h2.38c2.89,0,5.02-0.26,6.38-0.78c1.36-0.53,2.44-1.36,3.23-2.49c0.8-1.13,1.19-2.39,1.19-3.77c0-1.86-0.66-3.32-1.99-4.38
		c-1.34-1.06-3.46-1.58-6.37-1.58H443L443,26.01z M443,43.09v15.6h5.15c3.03,0,5.26-0.29,6.67-0.87c1.42-0.58,2.55-1.5,3.41-2.73
		c0.86-1.23,1.29-2.57,1.29-4c0-1.81-0.61-3.39-1.81-4.74c-1.2-1.34-2.86-2.26-4.97-2.76c-1.42-0.33-3.88-0.5-7.4-0.5H443L443,43.09
		z M468.43,22.06h4.16v40.59h-4.16V22.06L468.43,22.06z M496.05,22.06l19.36,40.59h-4.46l-6.48-13.34h-17.98l-6.44,13.34h-4.62
		l19.59-40.59H496.05L496.05,22.06z M495.53,30.58l-7.14,14.78h14.25L495.53,30.58z"/>
</g>
</svg>
